HIERARCHY
ROOT Hips
{
	OFFSET -3.958830 18.904000 13.208200
	CHANNELS 6 Xposition Yposition Zposition Zrotation Yrotation Xrotation 
	JOINT LHipJoint
	{
		OFFSET 0.000000 0.000000 0.000000
		CHANNELS 3 Zrotation Yrotation Xrotation
		JOINT LeftUpLeg
		{
			OFFSET 1.800000 -1.400000 0.085000
			CHANNELS 3 Zrotation Yrotation Xrotation
			JOINT LeftLeg
			{
				OFFSET 2.215000 -6.000000 0.000000
				CHANNELS 3 Zrotation Yrotation Xrotation
				JOINT LeftFoot
				{
					OFFSET 2.500000 -6.900000 0.000000
					CHANNELS 3 Zrotation Yrotation Xrotation
					JOINT LeftToeBase
					{
						OFFSET 0.200000 -0.500000 1.950000
						CHANNELS 3 Zrotation Yrotation Xrotation
						End Site
						{
							OFFSET 0.000000 0.000000 0.000000
						}
					}
				}
			}
		}
	}
	JOINT RHipJoint
	{
		OFFSET 0.000000 0.000000 0.000000
		CHANNELS 3 Zrotation Yrotation Xrotation
		JOINT RightUpLeg
		{
			OFFSET -1.800000 -1.400000 0.085000
			CHANNELS 3 Zrotation Yrotation Xrotation
			JOINT RightLeg
			{
				OFFSET -2.215000 -6.000000 0.000000
				CHANNELS 3 Zrotation Yrotation Xrotation
				JOINT RightFoot
				{
					OFFSET -2.500000 -6.900000 0.000000
					CHANNELS 3 Zrotation Yrotation Xrotation
					JOINT RightToeBase
					{
						OFFSET -0.200000 -0.500000 1.950000
						CHANNELS 3 Zrotation Yrotation Xrotation
						End Site
						{
							OFFSET 0.000000 0.000000 0.000000
						}
					}
				}
			}
		}
	}
	JOINT LowerBack
	{
		OFFSET 0.000000 0.000000 0.000000
		CHANNELS 3 Zrotation Yrotation Xrotation
		JOINT Spine
		{
			OFFSET -0.087000 1.940000 -0.288900
			CHANNELS 3 Zrotation Yrotation Xrotation
			JOINT Spine1
			{
				OFFSET 0.000000 1.950000 0.060000
				CHANNELS 3 Zrotation Yrotation Xrotation
				JOINT Neck
				{
					OFFSET 0.000000 0.000000 0.000000
					CHANNELS 3 Zrotation Yrotation Xrotation
					JOINT Neck1
					{
						OFFSET 0.000000 1.600000 0.340000
						CHANNELS 3 Zrotation Yrotation Xrotation
						JOINT Head
						{
							OFFSET 0.000000 1.667000 -0.240000
							CHANNELS 3 Zrotation Yrotation Xrotation
							End Site
							{
								OFFSET 0.000000 0.000000 0.000000
							}
						}
					}
				}
				JOINT LeftShoulder
				{
					OFFSET 0.000000 0.000000 0.000000
					CHANNELS 3 Zrotation Yrotation Xrotation
					JOINT LeftArm
					{
						OFFSET 2.700000 1.550000 -0.730000
						CHANNELS 3 Zrotation Yrotation Xrotation
						JOINT LeftForeArm
						{
							OFFSET 5.450000 0.000000 0.000000
							CHANNELS 3 Zrotation Yrotation Xrotation
							JOINT LeftHand
							{
								OFFSET 3.450000 0.000000 0.000000
								CHANNELS 3 Zrotation Yrotation Xrotation
								JOINT LeftHandIndex1
								{
									OFFSET 0.750000 0.000000 0.000000
									CHANNELS 3 Zrotation Yrotation Xrotation
									End Site
									{
										OFFSET 0.000000 0.000000 0.000000
									}
								}
							}
						}
					}
				}
				JOINT RightShoulder
				{
					OFFSET 0.000000 0.000000 0.000000
					CHANNELS 3 Zrotation Yrotation Xrotation
					JOINT RightArm
					{
						OFFSET -2.700000 1.550000 -0.730000
						CHANNELS 3 Zrotation Yrotation Xrotation
						JOINT RightForeArm
						{
							OFFSET -5.450000 0.000000 0.000000
							CHANNELS 3 Zrotation Yrotation Xrotation
							JOINT RightHand
							{
								OFFSET -3.450000 0.000000 0.000000
								CHANNELS 3 Zrotation Yrotation Xrotation
								JOINT RightHandIndex1
								{
									OFFSET -0.750000 0.000000 0.000000
									CHANNELS 3 Zrotation Yrotation Xrotation
									End Site
									{
										OFFSET 0.000000 0.000000 0.000000
									}
								}
							}
						}
					}
				}
			}
		}
	}
}
MOTION
Frames: 13
Frame Time: 0.016667
-0.420950 15.899190 -4.592440 -4.888984 -20.200268 -1.628442 -15.419615 11.335555 3.563707 -13.653556 -2.446695 1.178844 -22.522589 20.872956 43.242606 1.718866 11.078158 1.023660 0.299690 0.118260 0.337370 18.601987 -7.479422 5.370871 -2.161235 16.913961 -47.653507 41.433790 -24.537786 43.841748 -2.084310 -10.292900 0.927797 -0.007830 0.069040 0.286920 -4.060860 -2.759453 -9.086162 20.379623 -10.038648 41.776452 -7.420498 -5.420306 13.630729 3.652900 -8.128273 -12.108234 -15.841985 9.426790 27.218490 -13.062350 11.089540 -20.464710 -8.653472 -0.580163 4.274169 -18.971611 5.137422 -3.307867 162.331483 -32.513171 -149.270883 -3.839098 3.320755 0.429990 0.035040 0.148340 0.069570 1.922679 4.687202 8.415080 30.775062 -4.269119 -3.557128 -178.012286 31.997095 152.824945 2.194412 -2.208333 -0.041450 0.088290 -0.012260 -0.148960 
-0.395400 16.001680 -4.528600 -4.952687 -19.091989 -2.099697 -15.392905 11.491393 3.545356 -12.794263 -2.538171 1.351889 -21.078902 20.303574 43.849463 1.768335 10.957681 1.076686 0.289540 0.116650 0.307440 18.593556 -7.614017 5.248265 -2.137877 15.864489 -46.086240 39.834304 -23.768264 43.289377 -2.000679 -10.015452 1.027083 -0.046350 0.061910 0.287340 -4.034583 -2.850822 -9.016327 21.008179 -10.595126 40.924426 -7.504753 -5.851827 13.404644 3.984077 -8.227371 -12.642393 -16.448651 9.646162 28.269260 -13.115930 10.999550 -18.878500 -8.892059 -1.687228 5.186869 -21.461976 5.527753 -3.988246 163.589188 -37.373211 -157.952203 -3.801837 3.375803 0.404280 0.024410 0.157980 0.096860 1.568907 5.804424 8.548044 32.804426 -3.698835 -5.538117 -178.276252 36.280175 152.742576 2.186385 -2.187250 -0.002130 0.058770 -0.038530 -0.115540 
-0.391210 16.136850 -4.466870 -5.293997 -17.956953 -1.607833 -15.360297 11.634281 3.517070 -11.710740 -2.829051 0.628886 -19.657273 19.862230 44.837634 1.798003 10.913141 1.096208 0.267600 0.074720 0.290970 18.589383 -7.763100 5.132408 -1.670521 15.023015 -44.654088 38.469804 -22.347045 41.472695 -1.835659 -9.479809 1.176892 -0.087110 0.058810 0.286250 -4.024645 -2.886583 -8.953105 21.563804 -10.611840 38.528470 -7.326704 -5.799455 13.027164 4.098168 -7.893250 -13.161363 -16.160890 9.619757 29.618510 -12.059450 10.934420 -15.747070 -8.830944 -2.622647 6.059530 -24.488167 5.485222 -4.350141 165.404357 -42.572626 -166.079379 -3.759195 3.453912 0.380920 0.021150 0.142010 0.100340 1.270273 6.615275 8.751078 35.754209 -3.100347 -7.017558 -178.929203 40.683536 152.586732 2.182853 -2.180915 0.015510 0.010870 -0.051440 -0.104680 
-0.413560 16.317230 -4.411700 -5.482052 -16.948550 -1.187362 -15.372440 11.916978 3.479552 -10.221739 -2.878453 -0.076089 -18.223833 19.228678 45.064820 1.777033 10.778177 1.154686 0.211020 -0.006950 0.255980 18.530197 -7.886876 4.988145 -0.544415 14.336502 -42.499623 36.073525 -20.185136 39.285966 -1.596405 -8.734504 1.411196 -0.137640 0.095370 0.284700 -3.855005 -3.180702 -8.906438 20.612620 -9.670213 36.299964 -5.845052 -5.201635 12.617105 4.120432 -7.010514 -13.503081 -14.715733 9.141278 31.122058 -11.748720 11.301860 -11.615570 -8.366409 -3.157523 6.728383 -28.204271 4.345334 -4.147060 168.862498 -48.179839 -175.954012 -3.739457 3.514351 0.350610 0.057310 0.103530 0.105690 0.678738 6.882126 8.804535 39.573587 -2.171983 -8.509101 -178.330911 45.242684 155.905080 2.153879 -2.163340 0.004080 -0.016030 -0.045480 -0.099820 
-0.450260 16.522330 -4.345430 -5.575077 -16.280695 -0.697967 -15.360401 12.174077 3.380784 -8.421697 -2.518125 -0.408442 -16.706916 18.393368 44.480310 1.691336 10.469307 1.238151 0.197700 -0.026740 0.242440 18.489889 -8.062080 4.877364 -0.035363 13.728484 -40.255869 35.126966 -18.412580 36.467918 -1.414109 -8.050357 1.624798 -0.155190 0.100940 0.281180 -3.761472 -3.297045 -8.836743 19.564590 -8.564920 33.785683 -4.686131 -4.560862 12.258298 3.938281 -6.340795 -13.630056 -13.567120 8.922542 32.281258 -10.696680 11.114700 -9.743450 -8.320040 -3.498016 7.163770 -31.387980 4.214314 -4.507414 173.515598 -53.631831 173.870470 -3.683073 3.564020 0.341300 0.062340 0.093250 0.107670 0.929277 7.076141 8.688625 41.721063 -1.410919 -9.508036 -179.657515 49.573429 154.977333 2.130745 -2.130038 0.008010 -0.031780 -0.047660 -0.095780 
-0.482420 16.764160 -4.281830 -5.801035 -15.143264 -0.477769 -15.331709 12.470025 3.252625 -6.364921 -2.046608 -0.488808 -14.735081 17.098153 43.265091 1.561105 9.967698 1.364340 0.215910 -0.014080 0.255360 18.451430 -8.314678 4.736576 0.402472 12.858392 -37.546181 33.859504 -16.518149 33.312097 -1.238474 -7.298254 1.852869 -0.168440 0.081080 0.304160 -3.687204 -3.349224 -8.735340 18.675141 -7.642966 31.437277 -3.600912 -4.093285 11.993896 3.761630 -5.645757 -13.564435 -12.383639 8.492475 33.731595 -9.718680 10.571820 -9.017460 -8.972730 -3.961793 7.436014 -33.994957 4.626138 -5.317675 179.763632 -58.659054 162.917099 -3.616449 3.605502 0.339110 0.052050 0.111810 0.107440 1.873081 7.299398 8.439997 42.644012 -0.882858 -10.695352 177.358643 54.276841 151.430344 2.116778 -2.074655 0.044180 -0.064630 -0.059780 -0.088780 
-0.511750 17.001220 -4.215030 -5.665169 -14.554386 -0.287611 -15.318593 12.735710 3.132493 -4.712426 -1.513826 -0.640514 -12.727807 15.882250 42.087554 1.423979 9.473266 1.491007 0.229210 -0.014460 0.283900 18.399374 -8.547465 4.631954 0.082391 12.065326 -35.215316 33.105833 -15.051189 30.610562 -1.107605 -6.734198 2.015906 -0.177940 0.048120 0.309860 -3.581585 -3.369673 -8.673963 16.895060 -6.271306 29.015165 -2.311909 -3.385692 11.824493 3.587373 -4.685268 -13.576292 -10.736659 7.988980 35.723543 -8.832030 10.122630 -8.040110 -9.624965 -4.559878 7.665560 -36.300270 5.377109 -6.517466 -168.931482 -63.742375 146.250221 -3.541509 3.591949 0.350540 0.030850 0.130750 0.097470 2.829303 7.609048 8.362336 43.740008 -0.423440 -11.637140 174.135962 58.251016 148.007603 2.120786 -2.003228 0.060260 -0.092570 -0.075490 -0.096710 
-0.540560 17.236820 -4.139310 -5.986783 -13.526644 0.243872 -15.257506 12.951665 2.963969 -2.812352 -1.094474 -0.869501 -10.250941 14.417940 40.920517 1.235340 8.933202 1.651955 0.232110 -0.022620 0.305890 18.392181 -8.853017 4.528741 -0.314452 11.125377 -33.091497 32.384718 -13.686254 27.653542 -0.974087 -6.187769 2.200800 -0.172790 0.042730 0.285290 -3.620103 -3.177697 -8.551570 16.376303 -5.508586 25.885007 -1.803600 -3.110397 11.527489 3.449457 -3.870475 -13.343496 -9.222572 7.729147 37.365936 -8.494300 10.159050 -7.035130 -10.597220 -4.680471 7.627533 -38.123126 6.323434 -7.765536 -153.845463 -68.154106 127.582792 -3.511272 3.462797 0.370190 0.026320 0.131030 0.099830 4.036477 7.234109 8.074123 45.536104 0.100658 -12.458042 170.075171 62.396162 144.519611 2.102423 -1.897927 0.034590 -0.074510 -0.090410 -0.113910 
-0.561610 17.465650 -4.079100 -5.917333 -12.503070 0.688736 -15.238512 13.213477 2.825745 -1.614998 -0.634867 -1.040308 -7.398719 12.658484 39.350096 1.056872 8.285996 1.842067 0.218810 -0.054180 0.312780 18.346271 -9.123126 4.426657 -0.617965 10.264707 -31.567474 30.150399 -12.505729 26.186199 -0.833754 -5.734429 2.347851 -0.195320 0.042270 0.295960 -3.539695 -3.130698 -8.448858 14.854260 -4.641056 23.607553 -0.901305 -2.744957 10.567180 3.408820 -3.016129 -13.164369 -7.481288 7.320357 38.198938 -8.232790 10.250250 -5.354320 -10.738993 -4.273021 7.424001 -40.301212 6.884274 -8.783651 -126.675776 -71.535762 96.520737 -3.616931 3.207859 0.362070 0.038500 0.121380 0.087040 4.271170 6.515680 7.858349 47.498704 0.338510 -13.576800 161.854163 66.919831 136.224571 2.095802 -1.736559 0.040570 -0.101100 -0.086040 -0.121790 
-0.576460 17.676400 -4.029010 -5.979290 -11.031912 1.624655 -15.212709 13.434286 2.686855 -0.526584 -0.485812 -2.250494 -4.836271 11.003248 37.797538 0.890869 7.649181 2.039151 0.181710 -0.086660 0.279990 18.318233 -9.355747 4.325982 -1.087983 9.442392 -30.913143 27.646829 -11.502933 25.156072 -0.689108 -5.313306 2.498853 -0.218400 0.077840 0.296290 -3.513612 -3.096164 -8.302739 13.891800 -4.286253 20.905903 0.051452 -2.846403 9.807823 3.218555 -3.070871 -13.066770 -7.542998 7.515105 38.431025 -7.841190 10.033020 -3.674860 -10.357930 -3.446795 7.560959 -43.205283 7.068668 -7.699656 -93.250655 -72.676170 61.568856 -3.809727 3.321707 0.330470 0.065530 0.099310 0.081640 4.373884 5.905658 7.422283 48.352009 0.653904 -14.717586 149.538013 70.476255 123.473199 2.127320 -1.401633 0.043720 -0.094570 -0.064550 -0.104540 
-0.592960 17.860390 -3.971020 -6.289422 -9.065818 2.426943 -15.145415 13.600022 2.529747 1.146958 -0.320828 -2.915067 -3.152198 9.533633 34.664362 0.671112 6.912414 2.296073 0.167920 -0.113760 0.252460 18.331339 -9.628765 4.214539 -1.593075 8.521138 -29.759167 26.006942 -10.756681 23.826532 -0.583960 -4.991518 2.622757 -0.212220 0.116230 0.263380 -3.625182 -2.920662 -8.131922 13.847520 -4.339423 18.006606 0.122144 -3.226878 9.123064 2.838809 -3.301090 -13.034248 -8.050198 7.460091 38.848929 -6.043870 8.705840 -1.837120 -9.504210 -3.139592 7.435232 -45.521383 7.328180 -9.100248 -65.228940 -66.225100 35.914718 -3.505396 3.714685 0.338050 0.069500 0.068400 0.102860 4.284403 5.685263 7.323748 49.682820 0.729449 -16.044497 132.019517 72.854688 104.199069 2.319716 -0.641001 0.003290 -0.059260 -0.064670 -0.099610 
-0.597330 18.009540 -3.915770 -6.231158 -6.010488 3.608987 -15.116033 13.709738 2.357945 2.577678 -0.482292 -4.530666 -1.153301 7.989655 31.879244 0.478785 6.199045 2.537721 0.133930 -0.156520 0.212770 18.323978 -9.828905 4.122612 -3.061936 7.507222 -29.330082 25.586793 -10.404716 22.262625 -0.491588 -4.854197 2.674823 -0.222570 0.173990 0.274580 -3.682402 -2.777755 -7.933308 13.225676 -4.444733 14.844101 0.383527 -3.810269 8.356106 2.566231 -2.800044 -12.489925 -6.918757 6.805570 37.653038 -5.296390 8.065090 0.285330 -8.932011 -2.412420 6.954234 -47.352174 6.833659 -9.779267 -49.948088 -58.543850 22.428023 -3.520192 3.671216 0.286000 0.122570 0.013550 0.105140 4.205248 4.349224 6.813270 50.802514 0.895567 -15.119248 112.951154 75.338762 82.135891 3.156783 0.993208 -0.003870 -0.069450 -0.042130 -0.086660 
-0.598730 18.141510 -3.877560 -6.061410 -3.335531 4.427326 -15.127700 13.821093 2.241941 4.223792 -0.622709 -6.281748 -0.049857 7.002938 29.173583 0.322681 5.618053 2.731471 0.098210 -0.187000 0.185330 18.278018 -10.026153 3.977696 -4.201591 6.572589 -28.646167 23.876547 -9.937190 21.467618 -0.393756 -4.663782 2.740589 -0.229940 0.204400 0.279700 -3.624493 -2.681575 -7.721991 12.157192 -4.240994 12.285994 0.893712 -4.000177 8.195695 2.526062 -2.134398 -12.065446 -5.597438 5.554643 36.542317 -5.896800 7.616600 1.239390 -8.410174 -2.040168 6.246862 -49.112854 5.118182 -9.819602 -37.962565 -50.192264 13.235435 -3.572330 3.549458 0.246620 0.162220 -0.019050 0.095540 3.743541 3.340678 7.129102 52.623594 1.660114 -5.600366 83.013137 87.444623 58.438935 4.169006 1.337793 -0.010700 -0.075240 -0.022580 -0.080180 
